<?xml version="1.0" encoding="iso-8859-1"?>
<!-- Generator: Adobe Illustrator 17.1.0, SVG Export Plug-In . SVG Version: 6.00 Build 0)  -->
<!DOCTYPE svg PUBLIC "-//W3C//DTD SVG 1.1//EN" "http://www.w3.org/Graphics/SVG/1.1/DTD/svg11.dtd">
<svg version="1.1" id="Capa_1" xmlns="http://www.w3.org/2000/svg" xmlns:xlink="http://www.w3.org/1999/xlink" x="0px" y="0px"
	 viewBox="0 0 195 195" style="enable-background:new 0 0 195 195;" xml:space="preserve">
<path d="M157.588,183.917H4c-2.209,0-4-1.791-4-4s1.791-4,4-4h153.588c16.218,0,29.412-13.194,29.412-29.413v-0.675
	c0-16.218-13.194-29.413-29.412-29.413H38.155C17.116,116.417,0,99.301,0,78.262v-0.69c0-21.039,17.116-38.156,38.155-38.156h85.344
	v-4.958c0-8.478,6.897-15.375,15.375-15.375H162.5v-4c0-2.209,1.791-4,4-4s4,1.791,4,4v12.25H188c2.209,0,4,1.791,4,4s-1.791,4-4,4
	h-17.5v16H188c2.209,0,4,1.791,4,4s-1.791,4-4,4h-17.5v12.25c0,2.209-1.791,4-4,4s-4-1.791-4-4v-4h-23.626
	c-8.478,0-15.375-6.897-15.375-15.375v-4.792H38.155C21.527,47.416,8,60.944,8,77.572v0.69c0,16.627,13.527,30.155,30.155,30.155
	h119.433c20.629,0,37.412,16.783,37.412,37.413v0.675C195,167.134,178.217,183.917,157.588,183.917z M138.874,27.083
	c-4.066,0-7.375,3.308-7.375,7.375v17.75c0,4.066,3.309,7.375,7.375,7.375H162.5v-32.5H138.874z"/>
<g>
</g>
<g>
</g>
<g>
</g>
<g>
</g>
<g>
</g>
<g>
</g>
<g>
</g>
<g>
</g>
<g>
</g>
<g>
</g>
<g>
</g>
<g>
</g>
<g>
</g>
<g>
</g>
<g>
</g>
</svg>
