<?xml version="1.0" encoding="iso-8859-1"?>
<!-- Generator: Adobe Illustrator 19.0.0, SVG Export Plug-In . SVG Version: 6.00 Build 0)  -->
<svg version="1.1" id="Capa_1" xmlns="http://www.w3.org/2000/svg" xmlns:xlink="http://www.w3.org/1999/xlink" x="0px" y="0px"
	 viewBox="0 0 471.665 471.665" style="enable-background:new 0 0 471.665 471.665;" xml:space="preserve">
	 <style type="text/css">
	.a{fill:gold;}
</style>
<g>
	<path class="a" d="M357.431,232.9c16.776-24.02,26.633-53.213,26.633-84.669C384.063,66.496,317.567,0,235.833,0S87.602,66.496,87.602,148.23
		c0,31.456,9.857,60.649,26.633,84.669L35.942,421.916l79.951-23.168l40.152,72.917l72.645-175.378
		c2.367,0.113,4.748,0.175,7.143,0.175s4.775-0.062,7.143-0.175l72.645,175.378l40.152-72.917l79.951,23.168L357.431,232.9z
		 M152.216,402.517l-21.621-39.263l-43.051,12.475l48.768-117.736c17.373,15.766,38.493,27.47,61.845,33.611L152.216,402.517z
		 M117.602,148.23C117.602,83.038,170.64,30,235.833,30s118.231,53.038,118.231,118.23c0,65.193-53.038,118.231-118.231,118.231
		S117.602,213.424,117.602,148.23z M341.069,363.254l-21.621,39.263l-45.941-110.912c23.352-6.141,44.472-17.845,61.845-33.611
		l48.768,117.736L341.069,363.254z"/>
	<path class="a" d="M235.833,70c-43.137,0-78.231,35.094-78.231,78.23s35.094,78.231,78.231,78.231s78.231-35.095,78.231-78.231
		S278.969,70,235.833,70z M235.833,196.462c-26.595,0-48.231-21.637-48.231-48.231S209.238,100,235.833,100
		s48.231,21.636,48.231,48.23S262.427,196.462,235.833,196.462z"/>
</g>
<g>
</g>
<g>
</g>
<g>
</g>
<g>
</g>
<g>
</g>
<g>
</g>
<g>
</g>
<g>
</g>
<g>
</g>
<g>
</g>
<g>
</g>
<g>
</g>
<g>
</g>
<g>
</g>
<g>
</g>
</svg>
